<?xml version="1.0" encoding="utf-8"?>
<!-- Generator: Adobe Illustrator 16.0.0, SVG Export Plug-In . SVG Version: 6.00 Build 0)  -->
<!DOCTYPE svg PUBLIC "-//W3C//DTD SVG 1.1//EN" "http://www.w3.org/Graphics/SVG/1.1/DTD/svg11.dtd">
<svg version="1.1" id="Layer_1" xmlns="http://www.w3.org/2000/svg" xmlns:xlink="http://www.w3.org/1999/xlink" x="0px" y="0px"
	 width="64px" height="64px" viewBox="0 0 64 64" enable-background="new 0 0 64 64" xml:space="preserve">
<path fill-rule="evenodd" clip-rule="evenodd" d="M6.818,59.6c11.225-7.512,18.368-11.668,24.635-22.605
	c2.696-4.74,4.665-11.521,4.665-16.479c0-4.01-0.22-7.001-1.749-9.918c-1.75-3.354-5.467-5.978-10.277-5.541
	c-3.206,0.292-7.069,1.459-8.673,3.208c-0.875,0.947-1.676,2.26-2.186,3.354c-0.438,0.948,0,2.406,1.748,2.479
	c0.657,0,2.115-0.583,2.916-0.656c3.79-0.438,6.925,2.625,6.925,5.906c0,3.209-2.843,6.563-7.361,6.563
	c-4.665,0-8.6-3.209-8.747-7.802c-0.145-4.885,3.062-9.845,7.58-12.324c2.405-1.531,7.653-2.916,10.203-2.916
	c4.665,0,8.819,0.802,13.194,4.448c4.372,3.646,5.829,6.635,6.486,12.761c0.947,8.678-6.271,20.054-13.266,25.813
	c-6.56,5.396-16.618,10.865-25.655,15.24L6.818,59.6z M53.245,8.483c2.404,0,3.937,1.969,3.937,3.938c0,2.042-1.532,4.01-3.937,4.01
	c-2.55,0-4.008-1.969-4.008-4.01C49.237,10.452,50.695,8.483,53.245,8.483z M53.245,24.453c2.404,0,3.937,1.968,3.937,3.937
	c0,2.043-1.532,4.012-3.937,4.012c-2.55,0-4.008-1.969-4.008-4.012C49.237,26.421,50.695,24.453,53.245,24.453z"/>
<g>
</g>
<g>
</g>
<g>
</g>
<g>
</g>
<g>
</g>
<g>
</g>
</svg>
