<?xml version="1.0" encoding="utf-8"?>
<!-- Generator: Adobe Illustrator 16.0.0, SVG Export Plug-In . SVG Version: 6.00 Build 0)  -->
<!DOCTYPE svg PUBLIC "-//W3C//DTD SVG 1.1//EN" "http://www.w3.org/Graphics/SVG/1.1/DTD/svg11.dtd">
<svg version="1.1" id="Layer_1" xmlns="http://www.w3.org/2000/svg" xmlns:xlink="http://www.w3.org/1999/xlink" x="0px" y="0px"
	 width="100px" height="100px" viewBox="0 0 100 100" enable-background="new 0 0 100 100" xml:space="preserve">
<g transform="translate(0.000000,1280.000000) scale(0.100000,-0.100000)">
	<path fill="#010101" d="M544.58,11829.726c8.789,4.141,11.748,8.145,13.516,18.477c2.08,12.129-2.871,22.988-12.998,28.379
		c-2.363,1.25-4.795,3.105-5.4,4.063c-1.25,1.855-1.689,7.383-0.879,11.387c0.293,1.396,2.363,10.713,4.502,20.684
		c5.84,26.602,7.178,34.355,6.875,40.273l-0.225,5.176l-5.83,3.76c-11.016,7.236-15.889,13.75-17.432,23.203
		c-0.967,5.615-0.82,99.014,0.508,353.936l0.449,93.398l2.656,2.52c5.244,4.941,13.154,7.529,23.35,7.529
		c11.533,0,21.943-4.131,28.965-11.299c4.951-5.098,8.564-14.561,12.402-32.441c0.82-3.613,2.002-6.797,3.33-8.652
		c3.77-5.166,11.455-7.383,17.295-4.941c3.477,1.475,8.428,6.055,10.195,9.609c5.615,10.928,8.271,27.637,6.572,40.635
		c-1.621,12.275-9.092,37.686-13.74,47.002c-5.986,11.963-9.238,24.961-9.238,37.305c0,13.008,2.52,23.125,9.238,36.943
		c5.918,12.119,18.555,40.947,22.314,50.615c9.385,24.531,13.008,46.328,11.309,68.281c-1.621,21.504-5.977,35.176-15.225,47.734
		c-13.672,18.691-33.623,30.957-58.818,36.201c-13.965,2.891-24.824,3.701-50.605,3.701h-24.541l-1.108,2.07
		c-0.962,1.924-0.962,2.285,0.073,3.252c0.889,0.889,0.962,1.475,0.303,2.734c-0.669,1.172-1.553,1.553-4.146,1.553
		c-4.653,0-6.87-2.52-4.429-5.186c0.957-1.025,0.957-1.396,0-2.725c-0.962-1.338-2.144-1.553-12.344-1.992
		c-17.432-0.752-44.629-3.994-57.119-6.807c-20.605-4.648-37.9-13.818-52.979-28.223c-12.49-11.973-18.252-21.133-21.797-34.736
		c-1.553-5.898-1.924-9.375-2.217-20.088c-0.889-32.666,5.098-56.377,27.852-109.736c7.246-17.129,10.576-25.488,12.793-32.51
		c5.908-18.838,5.605-40.781-0.82-62.813c-1.172-4.053-4.941-16.689-8.271-28.076c-9.092-31.104-11.602-46.172-10.859-66.348
		c0.293-8.721,0.811-12.852,2.217-18.398c3.477-13.301,11.602-26.016,19.58-30.664c2.588-1.553,4.355-1.992,7.686-1.992
		c3.105-0.078,3.984-0.293,3.242-0.82c-0.801-0.664-0.664-1.035,1.113-1.992c1.406-0.811,1.992-1.621,1.699-2.441
		c-0.518-1.328,0.889-3.32,2.52-3.32c0.586,0,2.207,0.811,3.613,1.914c3.027,2.295,3.252,4.883,0.518,6.133
		c-1.621,0.664-1.846,1.191-1.475,2.813c0.439,1.553,0.293,1.777-0.742,1.406c-1.182-0.449-1.25-0.371-0.146,0.811
		c1.924,2.217,2.666,5.986,3.545,17.373c1.035,13.965,3.184,26.367,5.322,30.732c2.217,4.502,10.791,13.154,16.699,16.699
		c16.035,9.678,31.553,8.057,39.971-4.209l2.07-3.105l0.518-19.58c0.303-10.791,0.811-30.889,1.182-44.707
		c0.742-26.23,2.363-94.365,3.701-151.846c1.328-58.447,2.139-107.881,2.354-142.91l0.234-33.906l-5.693-4.365
		c-8.135-6.201-8.35-7.236-4.58-20.469c1.406-4.951,1.621-6.357,0.879-6.865c-1.699-1.035-3.613-0.664-4.941,1.035l-1.328,1.621
		l-4.219-1.699c-4.063-1.699-4.141-1.777-4.141-4.58c0-3.33,1.406-7.168,3.33-9.092c2.363-2.295,9.971,0.146,9.971,3.184
		c0,0.879,0.664,1.465,2.07,1.768c1.113,0.225,2.148,0.293,2.217,0.146c0.674-0.586,4.365-14.414,3.994-14.785
		c-0.82-0.801-3.691-0.361-4.59,0.742c-1.25,1.484-3.398,1.406-7.227-0.371l-3.184-1.465l0.439-3.477
		c0.596-3.848,2.295-7.393,4.131-8.574c2.744-1.699,10.205,1.846,9.248,4.434c-0.225,0.518,0.068,0.957,0.586,0.957
		c0.596,0,1.553,0.225,2.139,0.449c0.898,0.293,1.631-1.113,3.408-6.504c1.992-6.279,2.061-6.943,1.025-7.832
		c-1.768-1.25-3.027-1.113-3.906,0.586c-0.957,1.855-3.184,1.855-7.246,0l-3.174-1.475l0.518-3.467
		c0.664-5.029,2.363-8.281,4.512-8.799c3.906-1.035,10.195,2.51,8.711,4.873c-0.215,0.449,0.371,0.742,1.406,0.742
		s2.148,0,2.437,0.078c0.444,0,2.588-5.547,5.024-13.379c0.371-1.035-0.073-1.484-1.846-1.855c-1.919-0.43-2.583-0.215-3.398,1.045
		c-1.406,1.924-2.734,1.924-6.865,0.068l-3.184-1.475l0.293-4.063c0.518-5.908,2.363-8.135,6.719-8.057
		c3.774,0,6.436,1.777,6.436,4.141c0,1.182,0.444,1.406,2.437,1.182c2.29-0.225,2.441-0.439,4.727-7.021l2.368-6.797l-2.29-0.742
		c-1.997-0.742-2.593-0.586-3.911,0.664c-1.924,1.855-2.886,1.855-6.953,0l-3.174-1.475l0.303-4.063
		c0.508-5.908,2.354-8.125,6.714-8.057c3.696,0,6.426,1.777,6.426,4.141c0,1.25,0.518,1.484,4.214,1.621
		c1.704,0.078,5.693-14.033,4.146-14.697c-1.997-0.742-3.55-0.371-4.81,1.025c-1.401,1.631-3.32,1.338-7.827-0.957
		c-2.222-1.182-2.368-1.475-1.997-3.984c1.401-8.125,3.394-10.273,8.423-9.092c3.179,0.674,5.464,2.666,4.873,4.287
		c-0.142,0.586,0.742,1.113,2.368,1.406c1.846,0.371,2.803,0.215,3.037-0.371c0.732-2.148,5.166-7.91,7.676-9.902
		c1.484-1.182,4.512-2.813,6.65-3.613C532.314,11826.405,538.525,11826.923,544.58,11829.726z"/>
</g>
</svg>
