<?xml version="1.0" encoding="utf-8"?>
<!-- Generator: Adobe Illustrator 16.0.0, SVG Export Plug-In . SVG Version: 6.00 Build 0)  -->
<!DOCTYPE svg PUBLIC "-//W3C//DTD SVG 1.1//EN" "http://www.w3.org/Graphics/SVG/1.1/DTD/svg11.dtd">
<svg version="1.1" id="Layer_1" xmlns="http://www.w3.org/2000/svg" xmlns:xlink="http://www.w3.org/1999/xlink" x="0px" y="0px"
	 width="64px" height="64px" viewBox="0 0 64 64" enable-background="new 0 0 64 64" xml:space="preserve">
<path fill-rule="evenodd" clip-rule="evenodd" d="M39.606,1.282h1.521v51.623c-0.121,5.303-6.752,9.813-11.801,9.813
	c-1.52,0-3.041-0.061-4.257-0.854c-1.947-1.279-2.25-3.412-2.19-5.668c0.183-5.424,6.57-9.63,11.802-9.812
	c1.521-0.063,3.04,0.061,4.926,1.279V1.282z M24.765,58.939c0,0.854,0.426,1.158,1.46,1.341c1.764,0.122,5.048-1.28,7.786-3.413
	c2.798-2.072,5.414-4.998,5.231-6.887c-0.061-0.671-0.668-1.098-1.277-1.158c-2.616-0.489-7.359,2.804-9.246,4.326
	C26.407,55.038,24.644,57.172,24.765,58.939z"/>
<g>
</g>
<g>
</g>
<g>
</g>
<g>
</g>
<g>
</g>
<g>
</g>
</svg>
