<?xml version="1.0" encoding="utf-8"?>
<!-- Generator: Adobe Illustrator 16.0.0, SVG Export Plug-In . SVG Version: 6.00 Build 0)  -->
<!DOCTYPE svg PUBLIC "-//W3C//DTD SVG 1.1//EN" "http://www.w3.org/Graphics/SVG/1.1/DTD/svg11.dtd">
<svg version="1.1" id="Layer_1" xmlns="http://www.w3.org/2000/svg" xmlns:xlink="http://www.w3.org/1999/xlink" x="0px" y="0px"
	 width="64px" height="64px" viewBox="0 0 64 64" enable-background="new 0 0 64 64" xml:space="preserve">
<path fill-rule="evenodd" clip-rule="evenodd" d="M33.269,52.251c0,2.716-1.631,5.19-3.987,7.002
	c-2.295,1.81-5.316,2.896-7.973,2.896c-1.692,0-3.263-0.543-4.349-1.448c-1.148-0.905-1.813-2.232-1.813-3.803
	c0-2.474,1.691-4.95,3.987-6.76c2.296-1.872,5.194-3.078,7.61-3.078c2.115,0,3.927,0.302,5.014,1.326V1.851h1.51
	c0.121,2.173,0.483,5.191,3.081,7.546c2.959,2.594,5.678,5.189,7.551,7.544c2.477,3.079,4.229,6.941,4.229,10.864
	c0,1.992-0.303,4.045-0.846,5.977c1.025,2.052,1.57,4.225,1.57,6.699c0,4.226-1.27,7.727-3.021,10.623h-0.967
	c1.27-1.932,2.779-6.518,2.658-9.416c-0.121-3.199-0.361-5.069-2.416-7.605c-2.355-2.896-8.457-5.915-11.839-8.269V52.251z
	 M46.557,28.409c-0.119-3.199-1.691-5.674-3.744-8.21c-2.355-2.896-6.162-5.311-9.544-7.242c0.121,4.346,2.96,8.752,5.558,11.105
	c2.959,2.596,4.41,3.984,6.16,6.156c0.545,0.664,1.027,1.39,1.451,2.054C46.557,31.003,46.617,29.435,46.557,28.409z"/>
<g>
</g>
<g>
</g>
<g>
</g>
<g>
</g>
<g>
</g>
<g>
</g>
</svg>
