<?xml version="1.0" encoding="utf-8"?>
<!-- Generator: Adobe Illustrator 16.0.0, SVG Export Plug-In . SVG Version: 6.00 Build 0)  -->
<!DOCTYPE svg PUBLIC "-//W3C//DTD SVG 1.1//EN" "http://www.w3.org/Graphics/SVG/1.1/DTD/svg11.dtd">
<svg version="1.1" id="Layer_1" xmlns="http://www.w3.org/2000/svg" xmlns:xlink="http://www.w3.org/1999/xlink" x="0px" y="0px"
	 width="64px" height="64px" viewBox="0 0 64 64" enable-background="new 0 0 64 64" xml:space="preserve">
<path d="M33.762,30.904c0.443-0.069,0.887-0.104,1.333-0.104c4.34-0.034,7.382,3.869,7.347,8.287c0,3.663-2.187,6.368-5.433,7.944
	l1.366,6.952c0.103,0.582,0.103,1.097,0.103,1.573c0,3.493-2.188,5.754-5.811,6.131c-2.836,0.308-6.084-1.646-6.391-4.727
	c-0.205-2.055,1.195-4.176,3.178-4.418c1.812-0.204,3.452,1.405,3.521,3.289c0.103,2.636-2.495,3.492-3.486,3.252
	c0.103,1.165,2.118,1.608,3.076,1.507c3.178-0.376,4.681-2.328,4.785-5.104c0-0.752-0.068-1.643-0.271-2.498l-1.164-5.479
	c-1.094,0.308-2.152,0.443-3.179,0.443c-5.878,0-10.663-4.998-11.142-11.468c-0.512-6.679,4.854-11.644,8.99-15.889
	c-0.615-2.534-0.991-5-0.991-7.602c0-3.117,1.435-9.486,4.683-10.685c1.399-0.547,3.999,6.335,3.93,10.136
	c-0.067,4.795-2.255,9.381-5.606,12.704L33.762,30.904z M33.453,34.979c-1.914,0.582-3.555,2.566-3.521,4.689
	c0,1.817,1.196,2.98,2.7,3.698c0.171,0.069,0.239,0.208,0.239,0.344c0,0.206-0.239,0.377-0.478,0.342
	c-2.598-0.891-4.444-3.426-4.41-6.301c0-2.807,2.222-5.648,4.716-6.573l-1.025-5.171c-3.623,3.219-7.622,7.055-7.656,12.36
	c0,5.343,4.513,8.629,9.4,8.424c0.785-0.034,1.537-0.17,2.288-0.411L33.453,34.979z M36.803,9.571
	c-0.034-1.096-0.686-2.191-1.88-2.191c-2.871,0.582-3.896,5.512-3.964,7.978c0,1.439,0.239,2.91,0.581,4.313
	C34.274,17.309,36.939,13.44,36.803,9.571z M36.803,46.039c2.05-1.097,3.452-3.322,3.35-5.786c-0.24-3.15-2.565-5.447-5.605-5.412
	L36.803,46.039z"/>
<g>
</g>
<g>
</g>
<g>
</g>
<g>
</g>
<g>
</g>
<g>
</g>
</svg>
